<svg width="360" height="524" viewBox="0 0 360 524" fill="none" xmlns="http://www.w3.org/2000/svg">
<path d="M195.676 66.8747C207.735 42.337 238.994 34.5848 261.12 50.6445L264.18 52.8655C272.251 58.723 281.967 61.8775 291.939 61.8775H312.532C313.449 61.8775 314.366 61.8051 315.272 61.6609L353.162 55.633C375.646 52.056 396 69.4282 396 92.1947V92.1947L390.584 131.61C388.621 145.898 383.59 159.592 375.838 171.753L365.343 188.215C359.088 198.027 351.168 206.673 341.939 213.762L320.538 230.202C301.39 244.911 274.467 243.836 256.553 227.647L234.522 207.736C231.069 204.615 227.892 201.204 225.025 197.538L216.352 186.45C196.715 161.342 187.303 129.735 190.006 97.9753L191.317 82.576C191.782 77.1167 193.26 71.792 195.676 66.8747V66.8747Z" fill="#FF3B4C"/>
<path d="M327.359 12.8525C335.437 9.27973 344.896 11.315 350.79 17.8936V17.8936C352.798 20.1351 352.876 23.5044 350.975 25.8374L350.556 26.3527C348.499 28.8765 345.93 30.9345 343.018 32.3904L340.489 33.6549C338.491 34.654 336.405 35.4656 334.257 36.0794L329.867 37.3334L322.249 39.51L316.56 41.627C311.481 43.5167 306.789 46.3138 302.711 49.8819L301.596 50.8575C301.476 50.962 301.344 51.0509 301.202 51.1219V51.1219C299.625 51.9102 297.937 50.2716 298.677 48.6718L304.214 36.7114L307.837 30.5315C308.945 28.6425 310.191 26.8388 311.567 25.1353L311.639 25.047C314.548 21.4453 318.015 18.3334 321.91 15.8298L323.302 14.935C324.257 14.3209 325.258 13.7817 326.297 13.3223L327.359 12.8525Z" fill="#FF3B4C"/>
<path d="M-100.948 261.651C-84.0148 231.413 -52.0633 212.686 -17.4066 212.686H15.2204C23.2205 212.686 31.0149 210.151 37.4849 205.446L61.1975 188.2C83.3643 172.079 111.211 165.841 138.137 170.966V170.966C171.838 177.38 199.839 200.743 212.186 232.75L226.914 270.93C230.798 281 233.732 291.413 235.675 302.03L238.193 315.79C240.367 327.668 241.46 339.718 241.46 351.793V376.445C241.46 387.692 240.512 398.918 238.624 410.005L230.681 456.672C225.771 485.516 197.253 504 168.918 496.701L157.578 493.78C145.901 490.773 133.53 492.086 122.745 497.478L102.733 507.485C84.7951 516.454 63.0001 508.649 54.8338 490.332L53.4632 487.257C42.4589 462.575 24.0506 441.926 0.788547 428.171V428.171L-55.8341 387.519C-58.4993 385.605 -60.9308 383.385 -63.0784 380.905L-66.93 376.457C-90.8397 348.843 -104 313.539 -104 277.012V273.347C-104 269.252 -102.949 265.225 -100.948 261.651V261.651Z" fill="#FF3B4C"/>
</svg>
